<svg width="492" height="262" viewBox="0 0 492 262" fill="none" xmlns="http://www.w3.org/2000/svg">
<rect width="192.532" height="188.42" rx="15" transform="matrix(0.969083 -0.246734 0.221857 0.975079 1 47.5041)" fill="#9F89EB" fill-opacity="0.4"/>
<g filter="url(#filter0_d_1_16)">
<rect width="186.385" height="181.368" rx="15" transform="matrix(0.992429 -0.122822 0.109926 0.99394 12.4269 48.5473)" fill="#9F89EB" fill-opacity="0.7" shape-rendering="crispEdges"/>
</g>
<g filter="url(#filter1_d_1_16)">
<rect x="12.9699" y="65.2862" width="194.38" height="167.714" rx="15" fill="#A377C9"/>
</g>
<path d="M90.0418 127.143C90.7656 122.515 92.485 119.068 94.8623 116.607C98.1224 113.233 103.026 111.293 109.43 111.293C117.516 111.293 123.189 114.363 126.266 119.609C127.252 121.291 129.198 121.703 130.611 120.529C132.025 119.355 132.371 117.039 131.385 115.357C126.745 107.446 118.75 103.864 109.43 103.864C102.043 103.864 95.502 106.1 90.7652 111.003C86.599 115.316 84.1332 121.377 83.5528 128.828C85.5834 127.911 87.7659 127.329 90.0418 127.143Z" fill="#FD1102"/>
<path opacity="0.5" fill-rule="evenodd" clip-rule="evenodd" d="M94.429 187.604C83.2797 178.852 70.1845 168.573 70.1845 150.752C70.1845 131.08 92.0224 117.129 109.889 136.041C127.755 117.129 149.593 131.08 149.593 150.752C149.593 168.573 136.497 178.852 125.349 187.604C124.19 188.514 123.052 189.408 121.952 190.291C117.829 193.602 113.859 196.719 109.889 196.719C105.918 196.719 101.948 193.602 97.8255 190.291C96.7256 189.408 95.5877 188.514 94.429 187.604Z" fill="#FD1102"/>
<path d="M109.889 146.81C111.716 146.81 113.197 148.369 113.197 150.292V161.899C113.197 163.822 111.716 165.381 109.889 165.381C108.061 165.381 106.58 163.822 106.58 161.899V150.292C106.58 148.369 108.061 146.81 109.889 146.81Z" fill="#FD1102"/>
<path d="M242.227 146.848C242.227 149.984 242.878 152.811 244.179 155.328C245.502 157.845 247.315 159.851 249.619 161.344C251.923 162.816 254.568 163.552 257.555 163.552C260.563 163.552 263.208 162.816 265.491 161.344C267.795 159.851 269.598 157.845 270.899 155.328C272.2 152.811 272.851 149.984 272.851 146.848C272.851 143.712 272.2 140.896 270.899 138.4C269.598 135.883 267.795 133.888 265.491 132.416C263.208 130.944 260.563 130.208 257.555 130.208C254.568 130.208 251.923 130.944 249.619 132.416C247.315 133.888 245.502 135.883 244.179 138.4C242.878 140.896 242.227 143.712 242.227 146.848ZM236.563 146.848C236.563 143.776 237.086 140.917 238.131 138.272C239.198 135.605 240.68 133.28 242.579 131.296C244.478 129.312 246.696 127.765 249.235 126.656C251.795 125.547 254.568 124.992 257.555 124.992C260.563 124.992 263.336 125.547 265.875 126.656C268.435 127.765 270.654 129.312 272.531 131.296C274.43 133.28 275.902 135.605 276.947 138.272C277.992 140.917 278.515 143.776 278.515 146.848C278.515 149.941 277.992 152.821 276.947 155.488C275.923 158.133 274.462 160.459 272.563 162.464C270.686 164.448 268.478 165.995 265.939 167.104C263.4 168.213 260.606 168.768 257.555 168.768C254.504 168.768 251.688 168.213 249.107 167.104C246.547 165.995 244.328 164.448 242.451 162.464C240.574 160.459 239.123 158.133 238.099 155.488C237.075 152.821 236.563 149.941 236.563 146.848Z" fill="#FD1102"/>
<path d="M290.657 146.704L291.295 146.814V168H282.781V138.96H294.287L303.769 160.08L303.131 160.212V138.96H311.645V168H300.073L290.657 146.704ZM315.953 138.96H335.445V146.352H324.467V149.872H335.445V157.022H324.467V160.608H335.445V168H315.953V138.96ZM352.226 138.96H370.156V146.352H360.762V149.762H369.386V157.132H360.762V168H352.226V138.96ZM373.569 138.96H386.593C388.353 138.96 389.908 139.334 391.257 140.082C392.606 140.815 393.662 141.871 394.425 143.25C395.188 144.614 395.569 146.235 395.569 148.112C395.569 149.975 395.261 151.485 394.645 152.644C394.044 153.788 393.318 154.646 392.467 155.218C391.616 155.79 390.832 156.157 390.113 156.318L397.065 168H387.517L381.533 156.978H382.105V168H373.569V138.96ZM382.105 151.214H383.513C384.29 151.214 385.031 151.031 385.735 150.664C386.454 150.297 386.813 149.542 386.813 148.398C386.813 147.254 386.468 146.499 385.779 146.132C385.09 145.765 384.356 145.582 383.579 145.582H382.105V151.214ZM408.696 138.96H417.034L429.002 168H419.916L418.068 162.962H407.706L405.836 168H396.728L408.696 138.96ZM410.566 155.57H415.208L412.92 149.168H412.854L410.566 155.57ZM464.909 138.96V168H456.395V153.568L456.747 147.584L455.405 154.558L451.995 165.184H443.657L440.269 154.558L438.927 147.584L439.279 153.568V168H430.765V138.96H442.953L447.353 155.966L447.837 158.848L448.321 155.966L452.721 138.96H464.909ZM469.48 138.96H488.972V146.352H477.994V149.872H488.972V157.022H477.994V160.608H488.972V168H469.48V138.96Z" fill="#1E1E1E"/>
<defs>
<filter id="filter0_d_1_16" x="2.98346" y="15.3826" width="241.798" height="239.706" filterUnits="userSpaceOnUse" color-interpolation-filters="sRGB">
<feFlood flood-opacity="0" result="BackgroundImageFix"/>
<feColorMatrix in="SourceAlpha" type="matrix" values="0 0 0 0 0 0 0 0 0 0 0 0 0 0 0 0 0 0 127 0" result="hardAlpha"/>
<feOffset dx="9" dy="8"/>
<feGaussianBlur stdDeviation="10"/>
<feComposite in2="hardAlpha" operator="out"/>
<feColorMatrix type="matrix" values="0 0 0 0 0 0 0 0 0 0 0 0 0 0 0 0 0 0 0.6 0"/>
<feBlend mode="normal" in2="BackgroundImageFix" result="effect1_dropShadow_1_16"/>
<feBlend mode="normal" in="SourceGraphic" in2="effect1_dropShadow_1_16" result="shape"/>
</filter>
<filter id="filter1_d_1_16" x="0.96991" y="54.2862" width="234.38" height="207.714" filterUnits="userSpaceOnUse" color-interpolation-filters="sRGB">
<feFlood flood-opacity="0" result="BackgroundImageFix"/>
<feColorMatrix in="SourceAlpha" type="matrix" values="0 0 0 0 0 0 0 0 0 0 0 0 0 0 0 0 0 0 127 0" result="hardAlpha"/>
<feOffset dx="8" dy="9"/>
<feGaussianBlur stdDeviation="10"/>
<feComposite in2="hardAlpha" operator="out"/>
<feColorMatrix type="matrix" values="0 0 0 0 0 0 0 0 0 0 0 0 0 0 0 0 0 0 0.8 0"/>
<feBlend mode="normal" in2="BackgroundImageFix" result="effect1_dropShadow_1_16"/>
<feBlend mode="normal" in="SourceGraphic" in2="effect1_dropShadow_1_16" result="shape"/>
</filter>
</defs>
</svg>
