<svg width="330" height="140" viewBox="0 0 330 140" fill="none" xmlns="http://www.w3.org/2000/svg">
<rect width="92.1711" height="89.7855" rx="7" transform="matrix(0.969389 -0.245529 0.222958 0.974828 7 22.6307)" fill="#9F89EB" fill-opacity="0.4"/>
<g filter="url(#filter0_d_101_16)">
<rect width="89.2498" height="86.4084" rx="7" transform="matrix(0.992506 -0.122193 0.110493 0.993877 12.4722 23.1277)" fill="#9F89EB" fill-opacity="0.7" shape-rendering="crispEdges"/>
</g>
<g filter="url(#filter1_d_101_16)">
<rect x="12.7322" y="31.1019" width="93.0853" height="79.898" rx="7" fill="#A377C9"/>
</g>
<path d="M49.6404 60.5702C49.9871 58.3654 50.8104 56.7236 51.9489 55.5512C53.5101 53.9435 55.8583 53.0192 58.925 53.0192C62.7973 53.0192 65.5141 54.4818 66.9874 56.9809C67.4598 57.7823 68.3915 57.9786 69.0686 57.4193C69.7455 56.8601 69.9113 55.757 69.4389 54.9557C67.2171 51.1868 63.3882 49.4804 58.925 49.4804C55.3874 49.4804 52.2552 50.5453 49.9869 52.8812C47.9917 54.9358 46.8109 57.8234 46.533 61.3732C47.5054 60.9364 48.5505 60.659 49.6404 60.5702Z" fill="#FD1102"/>
<path opacity="0.5" fill-rule="evenodd" clip-rule="evenodd" d="M51.7413 89.3737C46.4021 85.2043 40.1311 80.3072 40.1311 71.8177C40.1311 62.4458 50.5889 55.7995 59.1447 64.8094C67.7006 55.7995 78.1583 62.4458 78.1583 71.8177C78.1583 80.3072 71.8872 85.2043 66.5482 89.3737C65.9932 89.8073 65.4483 90.2328 64.9214 90.6537C62.9474 92.2309 61.0461 93.7161 59.1447 93.7161C57.2433 93.7161 55.342 92.2309 53.3679 90.6537C52.8411 90.2328 52.2963 89.8073 51.7413 89.3737Z" fill="#FD1102"/>
<path d="M59.1448 69.9394C60.0198 69.9394 60.7292 70.6821 60.7292 71.5983V77.1277C60.7292 78.0439 60.0198 78.7866 59.1448 78.7866C58.2697 78.7866 57.5603 78.0439 57.5603 77.1277V71.5983C57.5603 70.6821 58.2697 69.9394 59.1448 69.9394Z" fill="#FD1102"/>
<path d="M149.721 45.8771C149.721 47.8371 150.128 49.6038 150.941 51.1771C151.768 52.7504 152.901 54.0038 154.341 54.9371C155.781 55.8571 157.434 56.3171 159.301 56.3171C161.181 56.3171 162.834 55.8571 164.261 54.9371C165.701 54.0038 166.828 52.7504 167.641 51.1771C168.454 49.6038 168.861 47.8371 168.861 45.8771C168.861 43.9171 168.454 42.1571 167.641 40.5971C166.828 39.0238 165.701 37.7771 164.261 36.8571C162.834 35.9371 161.181 35.4771 159.301 35.4771C157.434 35.4771 155.781 35.9371 154.341 36.8571C152.901 37.7771 151.768 39.0238 150.941 40.5971C150.128 42.1571 149.721 43.9171 149.721 45.8771ZM146.181 45.8771C146.181 43.9571 146.508 42.1704 147.161 40.5171C147.828 38.8504 148.754 37.3971 149.941 36.1571C151.128 34.9171 152.514 33.9504 154.101 33.2571C155.701 32.5638 157.434 32.2171 159.301 32.2171C161.181 32.2171 162.914 32.5638 164.501 33.2571C166.101 33.9504 167.488 34.9171 168.661 36.1571C169.848 37.3971 170.768 38.8504 171.421 40.5171C172.074 42.1704 172.401 43.9571 172.401 45.8771C172.401 47.8104 172.074 49.6104 171.421 51.2771C170.781 52.9304 169.868 54.3838 168.681 55.6371C167.508 56.8771 166.128 57.8438 164.541 58.5371C162.954 59.2304 161.208 59.5771 159.301 59.5771C157.394 59.5771 155.634 59.2304 154.021 58.5371C152.421 57.8438 151.034 56.8771 149.861 55.6371C148.688 54.3838 147.781 52.9304 147.141 51.2771C146.501 49.6104 146.181 47.8104 146.181 45.8771Z" fill="#FD1102"/>
<path d="M179.884 46.0291L180.276 46.0966V59.0971H175.051V41.2771H182.112L187.93 54.2371L187.539 54.3181V41.2771H192.763V59.0971H185.662L179.884 46.0291ZM195.407 41.2771H207.368V45.8131H200.631V47.9731H207.368V52.3606H200.631V54.5611H207.368V59.0971H195.407V41.2771ZM217.665 41.2771H228.667V45.8131H222.903V47.9056H228.195V52.4281H222.903V59.0971H217.665V41.2771ZM230.762 41.2771H238.754C239.834 41.2771 240.788 41.5066 241.616 41.9656C242.444 42.4156 243.092 43.0636 243.56 43.9096C244.028 44.7466 244.262 45.7411 244.262 46.8931C244.262 48.0361 244.073 48.9631 243.695 49.6741C243.326 50.3761 242.88 50.9026 242.358 51.2536C241.836 51.6046 241.355 51.8296 240.914 51.9286L245.18 59.0971H239.321L235.649 52.3336H236V59.0971H230.762V41.2771ZM236 48.7966H236.864C237.341 48.7966 237.795 48.6841 238.227 48.4591C238.668 48.2341 238.889 47.7706 238.889 47.0686C238.889 46.3666 238.677 45.9031 238.254 45.6781C237.831 45.4531 237.381 45.3406 236.904 45.3406H236V48.7966ZM252.317 41.2771H257.433L264.777 59.0971H259.202L258.068 56.0056H251.709L250.562 59.0971H244.973L252.317 41.2771ZM253.464 51.4696H256.313L254.909 47.5411H254.868L253.464 51.4696ZM286.812 41.2771V59.0971H281.587V50.2411L281.803 46.5691L280.98 50.8486L278.887 57.3691H273.771L271.692 50.8486L270.868 46.5691L271.084 50.2411V59.0971H265.86V41.2771H273.339L276.039 51.7126L276.336 53.4811L276.633 51.7126L279.333 41.2771H286.812ZM289.617 41.2771H301.578V45.8131H294.841V47.9731H301.578V52.3606H294.841V54.5611H301.578V59.0971H289.617V41.2771Z" fill="black"/>
<g filter="url(#filter2_d_101_16)">
<path d="M150.357 96.2816V87.4156H151.046V96.2816H150.357ZM150.799 96.2816V95.6576H156.129V96.2816H150.799ZM150.799 92.0306V91.4326H155.726V92.0306H150.799ZM150.799 88.0396V87.4156H156.064V88.0396H150.799ZM159.937 96.2816L157.116 90.2366H157.844L160.34 95.7226H159.937L162.446 90.2366H163.161L160.327 96.2816H159.937ZM166.934 96.4116C166.336 96.4116 165.794 96.2729 165.309 95.9956C164.832 95.7183 164.455 95.3413 164.178 94.8646C163.9 94.3879 163.762 93.8506 163.762 93.2526C163.762 92.6546 163.896 92.1216 164.165 91.6536C164.433 91.1769 164.802 90.7999 165.27 90.5226C165.746 90.2453 166.275 90.1066 166.856 90.1066C167.41 90.1066 167.896 90.2323 168.312 90.4836C168.736 90.7263 169.066 91.0643 169.3 91.4976C169.542 91.9309 169.664 92.4293 169.664 92.9926C169.664 93.0446 169.659 93.1139 169.651 93.2006C169.642 93.2786 169.629 93.3783 169.612 93.4996H164.23V92.9276H169.235L169.014 93.1096C169.031 92.6329 168.953 92.2169 168.78 91.8616C168.606 91.4976 168.355 91.2159 168.026 91.0166C167.696 90.8173 167.302 90.7176 166.843 90.7176C166.366 90.7176 165.946 90.8259 165.582 91.0426C165.218 91.2506 164.932 91.5409 164.724 91.9136C164.524 92.2863 164.425 92.7196 164.425 93.2136C164.425 93.7336 164.529 94.1886 164.737 94.5786C164.953 94.9599 165.252 95.2589 165.634 95.4756C166.015 95.6836 166.461 95.7876 166.973 95.7876C167.363 95.7876 167.722 95.7183 168.052 95.5796C168.39 95.4323 168.671 95.2156 168.897 94.9296L169.339 95.3586C169.061 95.6879 168.71 95.9479 168.286 96.1386C167.87 96.3206 167.419 96.4116 166.934 96.4116ZM171.172 96.2816V90.2366H171.835V96.2816H171.172ZM171.835 92.6676L171.51 92.5506C171.51 91.7793 171.705 91.1813 172.095 90.7566C172.485 90.3233 172.996 90.1066 173.629 90.1066C173.924 90.1066 174.197 90.1586 174.448 90.2626C174.708 90.3666 174.946 90.5356 175.163 90.7696L174.721 91.2376C174.556 91.0556 174.379 90.9256 174.188 90.8476C173.997 90.7696 173.772 90.7306 173.512 90.7306C173.018 90.7306 172.615 90.8996 172.303 91.2376C171.991 91.5669 171.835 92.0436 171.835 92.6676ZM178.152 96.2946L175.461 90.2366H176.189L178.516 95.6056H178.178L180.609 90.2366H181.337L178.49 96.2946H178.152ZM176.579 98.8426L178.139 95.6446L178.49 96.2946L177.294 98.8426H176.579ZM186.206 92.6156V92.0046H189.014C189.421 92.0046 189.781 91.9266 190.093 91.7706C190.405 91.6059 190.652 91.3763 190.834 91.0816C191.016 90.7783 191.107 90.4229 191.107 90.0156C191.107 89.6083 191.016 89.2573 190.834 88.9626C190.652 88.6593 190.405 88.4296 190.093 88.2736C189.781 88.1089 189.421 88.0266 189.014 88.0266H186.206V87.4156H189.092C189.612 87.4156 190.071 87.5239 190.47 87.7406C190.877 87.9486 191.198 88.2476 191.432 88.6376C191.675 89.0276 191.796 89.4869 191.796 90.0156C191.796 90.5443 191.675 91.0036 191.432 91.3936C191.198 91.7749 190.877 92.0739 190.47 92.2906C190.071 92.5073 189.612 92.6156 189.092 92.6156H186.206ZM185.79 96.2816V87.4156H186.479V96.2816H185.79ZM193.491 96.2816V90.2366H194.141V96.2816H193.491ZM193.816 88.8326C193.668 88.8326 193.543 88.7806 193.439 88.6766C193.343 88.5639 193.296 88.4339 193.296 88.2866C193.296 88.1393 193.343 88.0179 193.439 87.9226C193.543 87.8186 193.668 87.7666 193.816 87.7666C193.963 87.7666 194.089 87.8186 194.193 87.9226C194.297 88.0179 194.349 88.1393 194.349 88.2866C194.349 88.4339 194.297 88.5639 194.193 88.6766C194.089 88.7806 193.963 88.8326 193.816 88.8326ZM198.861 96.4116C198.272 96.4116 197.739 96.2729 197.262 95.9956C196.794 95.7096 196.422 95.3283 196.144 94.8516C195.867 94.3663 195.728 93.8289 195.728 93.2396C195.728 92.6503 195.867 92.1216 196.144 91.6536C196.422 91.1769 196.794 90.7999 197.262 90.5226C197.739 90.2453 198.272 90.1066 198.861 90.1066C199.303 90.1066 199.719 90.1889 200.109 90.3536C200.499 90.5183 200.833 90.7523 201.11 91.0556L200.668 91.4976C200.443 91.2549 200.174 91.0686 199.862 90.9386C199.559 90.7999 199.225 90.7306 198.861 90.7306C198.393 90.7306 197.973 90.8433 197.6 91.0686C197.236 91.2853 196.946 91.5799 196.729 91.9526C196.513 92.3253 196.404 92.7543 196.404 93.2396C196.404 93.7249 196.513 94.1583 196.729 94.5396C196.946 94.9209 197.236 95.2243 197.6 95.4496C197.973 95.6749 198.393 95.7876 198.861 95.7876C199.225 95.7876 199.563 95.7226 199.875 95.5926C200.196 95.4539 200.469 95.2589 200.694 95.0076L201.136 95.4496C200.85 95.7529 200.508 95.9913 200.109 96.1646C199.719 96.3293 199.303 96.4116 198.861 96.4116ZM203.453 96.2816V87.6756H204.116V96.2816H203.453ZM201.893 90.8216V90.2366H205.676V90.8216H201.893ZM209.377 96.4116C208.892 96.4116 208.458 96.2989 208.077 96.0736C207.696 95.8483 207.397 95.5363 207.18 95.1376C206.972 94.7389 206.868 94.2796 206.868 93.7596V90.2366H207.531V93.7336C207.531 94.1409 207.605 94.5006 207.752 94.8126C207.908 95.1159 208.125 95.3543 208.402 95.5276C208.679 95.7009 209.004 95.7876 209.377 95.7876C209.932 95.7876 210.374 95.6013 210.703 95.2286C211.041 94.8473 211.21 94.3489 211.21 93.7336V90.2366H211.873V93.7596C211.873 94.2796 211.765 94.7389 211.548 95.1376C211.34 95.5363 211.045 95.8483 210.664 96.0736C210.291 96.2989 209.862 96.4116 209.377 96.4116ZM213.676 96.2816V90.2366H214.339V96.2816H213.676ZM214.339 92.6676L214.014 92.5506C214.014 91.7793 214.209 91.1813 214.599 90.7566C214.989 90.3233 215.5 90.1066 216.133 90.1066C216.428 90.1066 216.701 90.1586 216.952 90.2626C217.212 90.3666 217.45 90.5356 217.667 90.7696L217.225 91.2376C217.06 91.0556 216.883 90.9256 216.692 90.8476C216.501 90.7696 216.276 90.7306 216.016 90.7306C215.522 90.7306 215.119 90.8996 214.807 91.2376C214.495 91.5669 214.339 92.0436 214.339 92.6676ZM221.308 96.4116C220.71 96.4116 220.168 96.2729 219.683 95.9956C219.206 95.7183 218.829 95.3413 218.552 94.8646C218.274 94.3879 218.136 93.8506 218.136 93.2526C218.136 92.6546 218.27 92.1216 218.539 91.6536C218.807 91.1769 219.176 90.7999 219.644 90.5226C220.12 90.2453 220.649 90.1066 221.23 90.1066C221.784 90.1066 222.27 90.2323 222.686 90.4836C223.11 90.7263 223.44 91.0643 223.674 91.4976C223.916 91.9309 224.038 92.4293 224.038 92.9926C224.038 93.0446 224.033 93.1139 224.025 93.2006C224.016 93.2786 224.003 93.3783 223.986 93.4996H218.604V92.9276H223.609L223.388 93.1096C223.405 92.6329 223.327 92.2169 223.154 91.8616C222.98 91.4976 222.729 91.2159 222.4 91.0166C222.07 90.8173 221.676 90.7176 221.217 90.7176C220.74 90.7176 220.32 90.8259 219.956 91.0426C219.592 91.2506 219.306 91.5409 219.098 91.9136C218.898 92.2863 218.799 92.7196 218.799 93.2136C218.799 93.7336 218.903 94.1886 219.111 94.5786C219.327 94.9599 219.626 95.2589 220.008 95.4756C220.389 95.6836 220.835 95.7876 221.347 95.7876C221.737 95.7876 222.096 95.7183 222.426 95.5796C222.764 95.4323 223.045 95.2156 223.271 94.9296L223.713 95.3586C223.435 95.6879 223.084 95.9479 222.66 96.1386C222.244 96.3206 221.793 96.4116 221.308 96.4116ZM231.072 96.2816V87.6626H231.748V96.2816H231.072ZM227.822 88.0396V87.4156H234.998V88.0396H227.822ZM237.405 96.4116C236.807 96.4116 236.266 96.2729 235.78 95.9956C235.304 95.7183 234.927 95.3413 234.649 94.8646C234.372 94.3879 234.233 93.8506 234.233 93.2526C234.233 92.6546 234.368 92.1216 234.636 91.6536C234.905 91.1769 235.273 90.7999 235.741 90.5226C236.218 90.2453 236.747 90.1066 237.327 90.1066C237.882 90.1066 238.367 90.2323 238.783 90.4836C239.208 90.7263 239.537 91.0643 239.771 91.4976C240.014 91.9309 240.135 92.4293 240.135 92.9926C240.135 93.0446 240.131 93.1139 240.122 93.2006C240.114 93.2786 240.101 93.3783 240.083 93.4996H234.701V92.9276H239.706L239.485 93.1096C239.503 92.6329 239.425 92.2169 239.251 91.8616C239.078 91.4976 238.827 91.2159 238.497 91.0166C238.168 90.8173 237.774 90.7176 237.314 90.7176C236.838 90.7176 236.417 90.8259 236.053 91.0426C235.689 91.2506 235.403 91.5409 235.195 91.9136C234.996 92.2863 234.896 92.7196 234.896 93.2136C234.896 93.7336 235 94.1886 235.208 94.5786C235.425 94.9599 235.724 95.2589 236.105 95.4756C236.487 95.6836 236.933 95.7876 237.444 95.7876C237.834 95.7876 238.194 95.7183 238.523 95.5796C238.861 95.4323 239.143 95.2156 239.368 94.9296L239.81 95.3586C239.533 95.6879 239.182 95.9479 238.757 96.1386C238.341 96.3206 237.891 96.4116 237.405 96.4116ZM241.644 96.2816V87.1556H242.307V96.2816H241.644ZM244.259 96.2816V87.1556H244.922V96.2816H244.259ZM248.681 96.4116C248.352 96.4116 248.04 96.3683 247.745 96.2816C247.459 96.1863 247.195 96.0563 246.952 95.8916C246.718 95.7269 246.51 95.5363 246.328 95.3196L246.77 94.8776C247.013 95.1983 247.295 95.4366 247.615 95.5926C247.945 95.7399 248.304 95.8136 248.694 95.8136C249.145 95.8136 249.5 95.7226 249.76 95.5406C250.02 95.3586 250.15 95.1029 250.15 94.7736C250.15 94.4789 250.068 94.2493 249.903 94.0846C249.739 93.9113 249.522 93.7769 249.253 93.6816C248.993 93.5863 248.716 93.4953 248.421 93.4086C248.135 93.3219 247.858 93.2179 247.589 93.0966C247.329 92.9753 247.117 92.8063 246.952 92.5896C246.788 92.3729 246.705 92.0826 246.705 91.7186C246.705 91.3979 246.788 91.1163 246.952 90.8736C247.117 90.6309 247.347 90.4446 247.641 90.3146C247.945 90.1759 248.3 90.1066 248.707 90.1066C249.158 90.1066 249.561 90.1846 249.916 90.3406C250.28 90.4966 250.571 90.7263 250.787 91.0296L250.358 91.4716C250.185 91.2289 249.951 91.0426 249.656 90.9126C249.362 90.7739 249.032 90.7046 248.668 90.7046C248.235 90.7046 247.906 90.7956 247.68 90.9776C247.455 91.1596 247.342 91.3936 247.342 91.6796C247.342 91.9483 247.425 92.1606 247.589 92.3166C247.754 92.4726 247.966 92.5939 248.226 92.6806C248.495 92.7673 248.772 92.8539 249.058 92.9406C249.353 93.0186 249.63 93.1226 249.89 93.2526C250.159 93.3826 250.376 93.5603 250.54 93.7856C250.705 94.0109 250.787 94.3186 250.787 94.7086C250.787 95.2286 250.597 95.6446 250.215 95.9566C249.834 96.2599 249.323 96.4116 248.681 96.4116ZM257.906 96.4116C257.325 96.4116 256.801 96.2729 256.333 95.9956C255.873 95.7183 255.509 95.3456 255.241 94.8776C254.972 94.4009 254.838 93.8636 254.838 93.2656C254.838 92.6763 254.972 92.1433 255.241 91.6666C255.509 91.1899 255.873 90.8129 256.333 90.5356C256.792 90.2496 257.308 90.1066 257.88 90.1066C258.348 90.1066 258.764 90.1976 259.128 90.3796C259.5 90.5529 259.804 90.7999 260.038 91.1206C260.28 91.4413 260.436 91.8226 260.506 92.2646V94.2406C260.428 94.6826 260.267 95.0683 260.025 95.3976C259.791 95.7183 259.492 95.9696 259.128 96.1516C258.772 96.3249 258.365 96.4116 257.906 96.4116ZM257.997 95.7876C258.69 95.7876 259.24 95.5579 259.648 95.0986C260.064 94.6306 260.272 94.0196 260.272 93.2656C260.272 92.7543 260.176 92.3123 259.986 91.9396C259.804 91.5583 259.539 91.2636 259.193 91.0556C258.846 90.8389 258.443 90.7306 257.984 90.7306C257.507 90.7306 257.082 90.8389 256.71 91.0556C256.346 91.2723 256.055 91.5713 255.839 91.9526C255.631 92.3339 255.527 92.7673 255.527 93.2526C255.527 93.7466 255.631 94.1843 255.839 94.5656C256.055 94.9469 256.35 95.2459 256.723 95.4626C257.095 95.6793 257.52 95.7876 257.997 95.7876ZM260.246 96.2816V94.6566L260.389 93.1746L260.246 91.7056V90.2366H260.909V96.2816H260.246ZM268.443 96.4116C267.75 96.4116 267.152 96.2816 266.649 96.0216C266.146 95.7529 265.713 95.3846 265.349 94.9166L265.83 94.4486C266.168 94.9079 266.549 95.2459 266.974 95.4626C267.407 95.6706 267.906 95.7746 268.469 95.7746C269.076 95.7746 269.57 95.6316 269.951 95.3456C270.332 95.0596 270.523 94.6609 270.523 94.1496C270.523 93.7596 270.441 93.4433 270.276 93.2006C270.111 92.9579 269.89 92.7586 269.613 92.6026C269.344 92.4466 269.045 92.3079 268.716 92.1866C268.395 92.0653 268.07 91.9439 267.741 91.8226C267.42 91.6926 267.126 91.5366 266.857 91.3546C266.588 91.1639 266.367 90.9213 266.194 90.6266C266.029 90.3319 265.947 89.9593 265.947 89.5086C265.947 89.0579 266.055 88.6679 266.272 88.3386C266.497 88.0006 266.801 87.7406 267.182 87.5586C267.572 87.3766 268.018 87.2856 268.521 87.2856C269.093 87.2856 269.604 87.3983 270.055 87.6236C270.506 87.8403 270.883 88.1479 271.186 88.5466L270.705 89.0146C270.419 88.6593 270.098 88.3906 269.743 88.2086C269.396 88.0179 268.985 87.9226 268.508 87.9226C267.953 87.9226 267.503 88.0613 267.156 88.3386C266.818 88.6073 266.649 88.9843 266.649 89.4696C266.649 89.8336 266.731 90.1283 266.896 90.3536C267.061 90.5789 267.277 90.7696 267.546 90.9256C267.823 91.0729 268.122 91.2029 268.443 91.3156C268.772 91.4283 269.097 91.5496 269.418 91.6796C269.739 91.8096 270.033 91.9743 270.302 92.1736C270.579 92.3643 270.8 92.6113 270.965 92.9146C271.13 93.2179 271.212 93.6036 271.212 94.0716C271.212 94.8256 270.961 95.4063 270.458 95.8136C269.964 96.2123 269.292 96.4116 268.443 96.4116ZM273.887 96.2816V87.6756H274.55V96.2816H273.887ZM272.327 90.8216V90.2366H276.11V90.8216H272.327ZM279.959 96.4116C279.37 96.4116 278.837 96.2729 278.36 95.9956C277.892 95.7096 277.519 95.3283 277.242 94.8516C276.965 94.3663 276.826 93.8289 276.826 93.2396C276.826 92.6503 276.965 92.1216 277.242 91.6536C277.519 91.1769 277.892 90.7999 278.36 90.5226C278.837 90.2453 279.37 90.1066 279.959 90.1066C280.54 90.1066 281.064 90.2453 281.532 90.5226C282.009 90.7999 282.386 91.1769 282.663 91.6536C282.94 92.1216 283.079 92.6503 283.079 93.2396C283.079 93.8376 282.94 94.3749 282.663 94.8516C282.386 95.3283 282.009 95.7096 281.532 95.9956C281.064 96.2729 280.54 96.4116 279.959 96.4116ZM279.959 95.7876C280.418 95.7876 280.83 95.6749 281.194 95.4496C281.567 95.2243 281.857 94.9209 282.065 94.5396C282.282 94.1496 282.39 93.7119 282.39 93.2266C282.39 92.7499 282.282 92.3253 282.065 91.9526C281.857 91.5799 281.567 91.2853 281.194 91.0686C280.83 90.8433 280.418 90.7306 279.959 90.7306C279.491 90.7306 279.071 90.8433 278.698 91.0686C278.334 91.2853 278.044 91.5799 277.827 91.9526C277.61 92.3253 277.502 92.7543 277.502 93.2396C277.502 93.7249 277.61 94.1583 277.827 94.5396C278.044 94.9209 278.334 95.2243 278.698 95.4496C279.071 95.6749 279.491 95.7876 279.959 95.7876ZM284.643 96.2816V90.2366H285.306V96.2816H284.643ZM285.306 92.6676L284.981 92.5506C284.981 91.7793 285.176 91.1813 285.566 90.7566C285.956 90.3233 286.467 90.1066 287.1 90.1066C287.394 90.1066 287.667 90.1586 287.919 90.2626C288.179 90.3666 288.417 90.5356 288.634 90.7696L288.192 91.2376C288.027 91.0556 287.849 90.9256 287.659 90.8476C287.468 90.7696 287.243 90.7306 286.983 90.7306C286.489 90.7306 286.086 90.8996 285.774 91.2376C285.462 91.5669 285.306 92.0436 285.306 92.6676ZM291.623 96.2946L288.932 90.2366H289.66L291.987 95.6056H291.649L294.08 90.2366H294.808L291.961 96.2946H291.623ZM290.05 98.8426L291.61 95.6446L291.961 96.2946L290.765 98.8426H290.05Z" fill="black"/>
</g>
<defs>
<filter id="filter0_d_101_16" x="2.20215" y="1.02423" width="136.669" height="135.18" filterUnits="userSpaceOnUse" color-interpolation-filters="sRGB">
<feFlood flood-opacity="0" result="BackgroundImageFix"/>
<feColorMatrix in="SourceAlpha" type="matrix" values="0 0 0 0 0 0 0 0 0 0 0 0 0 0 0 0 0 0 127 0" result="hardAlpha"/>
<feOffset dx="9" dy="8"/>
<feGaussianBlur stdDeviation="10"/>
<feComposite in2="hardAlpha" operator="out"/>
<feColorMatrix type="matrix" values="0 0 0 0 0 0 0 0 0 0 0 0 0 0 0 0 0 0 0.6 0"/>
<feBlend mode="normal" in2="BackgroundImageFix" result="effect1_dropShadow_101_16"/>
<feBlend mode="normal" in="SourceGraphic" in2="effect1_dropShadow_101_16" result="shape"/>
</filter>
<filter id="filter1_d_101_16" x="0.732178" y="20.1019" width="133.085" height="119.898" filterUnits="userSpaceOnUse" color-interpolation-filters="sRGB">
<feFlood flood-opacity="0" result="BackgroundImageFix"/>
<feColorMatrix in="SourceAlpha" type="matrix" values="0 0 0 0 0 0 0 0 0 0 0 0 0 0 0 0 0 0 127 0" result="hardAlpha"/>
<feOffset dx="8" dy="9"/>
<feGaussianBlur stdDeviation="10"/>
<feComposite in2="hardAlpha" operator="out"/>
<feColorMatrix type="matrix" values="0 0 0 0 0 0 0 0 0 0 0 0 0 0 0 0 0 0 0.8 0"/>
<feBlend mode="normal" in2="BackgroundImageFix" result="effect1_dropShadow_101_16"/>
<feBlend mode="normal" in="SourceGraphic" in2="effect1_dropShadow_101_16" result="shape"/>
</filter>
<filter id="filter2_d_101_16" x="146.357" y="87.1556" width="152.451" height="19.687" filterUnits="userSpaceOnUse" color-interpolation-filters="sRGB">
<feFlood flood-opacity="0" result="BackgroundImageFix"/>
<feColorMatrix in="SourceAlpha" type="matrix" values="0 0 0 0 0 0 0 0 0 0 0 0 0 0 0 0 0 0 127 0" result="hardAlpha"/>
<feOffset dy="4"/>
<feGaussianBlur stdDeviation="2"/>
<feComposite in2="hardAlpha" operator="out"/>
<feColorMatrix type="matrix" values="0 0 0 0 0 0 0 0 0 0 0 0 0 0 0 0 0 0 0.25 0"/>
<feBlend mode="normal" in2="BackgroundImageFix" result="effect1_dropShadow_101_16"/>
<feBlend mode="normal" in="SourceGraphic" in2="effect1_dropShadow_101_16" result="shape"/>
</filter>
</defs>
</svg>
